<svg version="1.2" xmlns="http://www.w3.org/2000/svg" viewBox="0 0 64 64" width="64" height="64">
	<title>gitbook-svg</title>
	<style>
		.s0 { fill: #000000 } 
	</style>
	<path id="Layer" fill-rule="evenodd" class="s0" d="m64 34c0 3.2-2.6 5.8-5.8 5.8-1.3 0-2.6-0.4-3.6-1.2l-20 10.8c-0.1 3.2-2.6 5.7-5.8 5.7-2.8 0-5.3-2.2-5.7-5l-18.2-9.4c-3-1.5-5.1-5.8-4.9-9.9 0.1-2.6 1.2-4.7 2.9-5.7 1-0.6 17.8-8.9 30.5-15.3l0.7-0.3c0.3-0.2 2.3-1.3 4.7 0 2.8 1.5 9.2 4.5 14.8 7.1 2.6 1.2 5.3 2.5 7.1 3.3 0 0 0.9 0.4 0.9 1.3 0 0.7-0.5 1.1-1 1.3l-30.8 16c-1.7 0.8-2.2 0.6-3.2 0.2-0.6-0.3-15.5-8.1-20.1-10.5l-0.1-0.1c-0.7-0.3-1.2-0.4-1.7-0.1-0.7 0.4-1.2 1.5-1.3 2.9-0.2 2.8 1.2 5.7 3 6.7l17.2 9c1-1.9 3-3.2 5.2-3.2 1.9 0 3.7 0.9 4.8 2.5l19.1-10.2q-0.3-0.9-0.3-1.8c0-3.2 2.6-5.8 5.8-5.8 3.2 0 5.8 2.6 5.8 5.9zm-3.9-0.1c0-1.1-0.9-1.9-1.9-1.9-1.1 0-1.9 0.9-1.9 1.9 0 1.1 0.9 1.9 1.9 1.9 1 0 1.9-0.9 1.9-1.9zm-33.2 15.4c0 1.1 0.9 1.9 1.9 1.9 1.1 0 1.9-0.9 1.9-1.9 0-1.1-0.9-1.9-1.9-1.9-1 0-1.9 0.8-1.9 1.9z"/>
</svg>